# xmcd CD database file
#
# Track frame offsets:
#	150
#	34515
#	70585
#	102588
#	133428
#	171578
#	217058
#	255578
#	285790
#
# Disc length: 4177 seconds
#
# Revision: 0
# Processed by: cddbd v1.5.2PL0 Copyright (c) Steve Scherf et al.
# Submitted via: CDex 1.70beta2
#
DISCID=87104f09
DTITLE=Mike Ledonne Quintet - Waltz For An Urbanite
DYEAR=1996
DGENRE=Jazz
TTITLE0=Scratchin'
TTITLE1=Re-Rev
TTITLE2=F.S.R.
TTITLE3=Walkin' With B.
TTITLE4=Waltz For An Urbanite
TTITLE5=Tranquility
TTITLE6=Don'T Blame Me
TTITLE7=Monsoon
TTITLE8=Pr'A Voce
EXTD=YEAR: 1996
EXTT0=
EXTT1=
EXTT2=
EXTT3=
EXTT4=
EXTT5=
EXTT6=
EXTT7=
EXTT8=
PLAYORDER=
